<svg width="137" height="48" viewBox="0 0 137 48" fill="none" xmlns="http://www.w3.org/2000/svg">
<path d="M0 24C0 10.7452 10.7452 0 24 0H113C126.255 0 137 10.7452 137 24C137 37.2548 126.255 48 113 48H24C10.7452 48 0 37.2548 0 24Z" fill="#4388DD"/>
<path d="M40 16C35.58 16 32 19.58 32 24C32 27.54 34.29 30.53 37.47 31.59C37.87 31.66 38.02 31.42 38.02 31.21C38.02 31.02 38.01 30.39 38.01 29.72C36 30.09 35.48 29.23 35.32 28.78C35.23 28.55 34.84 27.84 34.5 27.65C34.22 27.5 33.82 27.13 34.49 27.12C35.12 27.11 35.57 27.7 35.72 27.94C36.44 29.15 37.59 28.81 38.05 28.6C38.12 28.08 38.33 27.73 38.56 27.53C36.78 27.33 34.92 26.64 34.92 23.58C34.92 22.71 35.23 21.99 35.74 21.43C35.66 21.23 35.38 20.41 35.82 19.31C35.82 19.31 36.49 19.1 38.02 20.13C38.66 19.95 39.34 19.86 40.02 19.86C40.7 19.86 41.38 19.95 42.02 20.13C43.55 19.09 44.22 19.31 44.22 19.31C44.66 20.41 44.38 21.23 44.3 21.43C44.81 21.99 45.12 22.7 45.12 23.58C45.12 26.65 43.25 27.33 41.47 27.53C41.76 27.78 42.01 28.26 42.01 29.01C42.01 30.08 42 30.94 42 31.21C42 31.42 42.15 31.67 42.55 31.59C44.1382 31.054 45.5183 30.0333 46.496 28.6718C47.4737 27.3102 47.9997 25.6762 48 24C48 19.58 44.42 16 40 16Z" fill="white"/>
<path d="M59.4091 30V18.3636H60.8182V28.75H66.2273V30H59.4091ZM71.7727 30.1818C70.9848 30.1818 70.2936 29.9943 69.6989 29.6193C69.108 29.2443 68.6458 28.7197 68.3125 28.0455C67.983 27.3712 67.8182 26.5833 67.8182 25.6818C67.8182 24.7727 67.983 23.9792 68.3125 23.3011C68.6458 22.6231 69.108 22.0966 69.6989 21.7216C70.2936 21.3466 70.9848 21.1591 71.7727 21.1591C72.5606 21.1591 73.25 21.3466 73.8409 21.7216C74.4356 22.0966 74.8977 22.6231 75.2273 23.3011C75.5606 23.9792 75.7273 24.7727 75.7273 25.6818C75.7273 26.5833 75.5606 27.3712 75.2273 28.0455C74.8977 28.7197 74.4356 29.2443 73.8409 29.6193C73.25 29.9943 72.5606 30.1818 71.7727 30.1818ZM71.7727 28.9773C72.3712 28.9773 72.8636 28.8239 73.25 28.517C73.6364 28.2102 73.9223 27.8068 74.108 27.3068C74.2936 26.8068 74.3864 26.2652 74.3864 25.6818C74.3864 25.0985 74.2936 24.5549 74.108 24.0511C73.9223 23.5473 73.6364 23.1402 73.25 22.8295C72.8636 22.5189 72.3712 22.3636 71.7727 22.3636C71.1742 22.3636 70.6818 22.5189 70.2955 22.8295C69.9091 23.1402 69.6231 23.5473 69.4375 24.0511C69.2519 24.5549 69.1591 25.0985 69.1591 25.6818C69.1591 26.2652 69.2519 26.8068 69.4375 27.3068C69.6231 27.8068 69.9091 28.2102 70.2955 28.517C70.6818 28.8239 71.1742 28.9773 71.7727 28.9773ZM81.2969 33.4545C80.6491 33.4545 80.0923 33.3712 79.6264 33.2045C79.1605 33.0417 78.7723 32.8258 78.4616 32.5568C78.1548 32.2917 77.9105 32.0076 77.7287 31.7045L78.7969 30.9545C78.9181 31.1136 79.0715 31.2955 79.2571 31.5C79.4427 31.7083 79.6965 31.8883 80.0185 32.0398C80.3442 32.1951 80.7704 32.2727 81.2969 32.2727C82.0014 32.2727 82.5829 32.1023 83.0412 31.7614C83.4995 31.4205 83.7287 30.8864 83.7287 30.1591V28.3864H83.6151C83.5166 28.5455 83.3764 28.7424 83.1946 28.9773C83.0166 29.2083 82.759 29.4148 82.4219 29.5966C82.0885 29.7746 81.6378 29.8636 81.0696 29.8636C80.3651 29.8636 79.7325 29.697 79.1719 29.3636C78.6151 29.0303 78.1738 28.5455 77.848 27.9091C77.526 27.2727 77.3651 26.5 77.3651 25.5909C77.3651 24.697 77.5223 23.9186 77.8366 23.2557C78.151 22.589 78.5885 22.0739 79.1491 21.7102C79.7098 21.3428 80.3575 21.1591 81.0923 21.1591C81.6605 21.1591 82.1113 21.2538 82.4446 21.4432C82.7817 21.6288 83.0393 21.8409 83.2173 22.0795C83.3991 22.3144 83.5393 22.5076 83.6378 22.6591H83.7741V21.2727H85.0696V30.25C85.0696 31 84.8991 31.6098 84.5582 32.0795C84.2211 32.553 83.7666 32.8996 83.1946 33.1193C82.6264 33.3428 81.9938 33.4545 81.2969 33.4545ZM81.2514 28.6591C81.7893 28.6591 82.2438 28.536 82.6151 28.2898C82.9863 28.0436 83.2685 27.6894 83.4616 27.2273C83.6548 26.7652 83.7514 26.2121 83.7514 25.5682C83.7514 24.9394 83.6567 24.3845 83.4673 23.9034C83.2779 23.4223 82.9976 23.0455 82.6264 22.7727C82.2552 22.5 81.7969 22.3636 81.2514 22.3636C80.6832 22.3636 80.2098 22.5076 79.831 22.7955C79.456 23.0833 79.1738 23.4697 78.9844 23.9545C78.7988 24.4394 78.706 24.9773 78.706 25.5682C78.706 26.1742 78.8007 26.7102 78.9901 27.1761C79.1832 27.6383 79.4673 28.0019 79.8423 28.267C80.2211 28.5284 80.6908 28.6591 81.2514 28.6591ZM93.6151 18.3636V30H92.206V18.3636H93.6151ZM97.5994 24.75V30H96.2585V21.2727H97.554V22.6364H97.6676C97.8722 22.1932 98.1828 21.8371 98.5994 21.5682C99.0161 21.2955 99.554 21.1591 100.213 21.1591C100.804 21.1591 101.321 21.2803 101.764 21.5227C102.207 21.7614 102.552 22.125 102.798 22.6136C103.045 23.0985 103.168 23.7121 103.168 24.4545V30H101.827V24.5455C101.827 23.8598 101.649 23.3258 101.293 22.9432C100.937 22.5568 100.448 22.3636 99.8267 22.3636C99.3987 22.3636 99.0161 22.4564 98.679 22.642C98.3456 22.8277 98.0824 23.0985 97.8892 23.4545C97.696 23.8106 97.5994 24.2424 97.5994 24.75Z" fill="white"/>
</svg>
